# xmcd
#
# Track frame offsets: 
#        150
#        33557
#        69357
#        99252
#        123552
#        147774
#        165969
#
# Disc length: 2645 seconds
#
# Revision: 0
# Processed by: cddbd v1.5.2PL0 Copyright (c) Steve Scherf et al.
# Submitted via: ExactAudioCopy v0.99pb3
#
DISCID=530a5307
DTITLE=Tammy Fletcher and the Disciples - Live at the Mad River Music Fe
DTITLE=stival
DYEAR=1998
DGENRE=soul
TTITLE0=Down to the Village
TTITLE1=Magic Bus
TTITLE2=Heaven
TTITLE3=Canyons
TTITLE4=Going Home
TTITLE5=Bum
TTITLE6=Give It Grace
EXTD=
EXTT0=
EXTT1=
EXTT2=
EXTT3=
EXTT4=
EXTT5=
EXTT6=
PLAYORDER=
